<?xml version="1.0" encoding="UTF-8"?>
<svg xmlns="http://www.w3.org/2000/svg" xmlns:xlink="http://www.w3.org/1999/xlink" width="113px" height="100px"
  viewBox="0 0 113 100" version="1.1">
  <g id="surface1">
    <path fill="#1285FC"
      d="M 25.5625 8.308594 C 38.085938 17.726562 51.554688 36.824219 56.5 47.074219 C 61.445312 36.824219 74.914062 17.726562 87.4375 8.308594 C 96.476562 1.511719 111.117188 -3.746094 111.117188 12.984375 C 111.117188 16.328125 109.203125 41.058594 108.082031 45.074219 C 104.183594 59.035156 89.976562 62.59375 77.335938 60.4375 C 99.429688 64.207031 105.046875 76.683594 92.910156 89.160156 C 69.863281 112.855469 59.78125 83.214844 57.199219 75.621094 C 56.722656 74.226562 56.503906 73.574219 56.5 74.128906 C 56.496094 73.574219 56.273438 74.226562 55.800781 75.621094 C 53.21875 83.214844 43.140625 112.855469 20.085938 89.160156 C 7.949219 76.683594 13.570312 64.207031 35.664062 60.4375 C 23.023438 62.59375 8.816406 59.035156 4.917969 45.074219 C 3.796875 41.058594 1.882812 16.328125 1.882812 12.984375 C 1.882812 -3.746094 16.523438 1.511719 25.558594 8.308594 Z M 25.5625 8.308594 " />
  </g>
</svg>