<svg xmlns="http://www.w3.org/2000/svg" viewBox="0 0 586.6 121.43"><title>INSPIRE Logo</title><g id="a6fb781a-4c72-46a0-8d89-3b1f0fcbbe9c" data-name="Layer 2"><g id="e1c378a5-8f35-4d70-8835-2efb9d50a678" data-name="Calque 1"><path d="M474,40v13.7h14.45V40h7.85v35.7h-7.85V60.34H474v15.4h-7.85V40Z" style="fill:#fff"/><path d="M541.35,40v6.6H522.5v7.65h17.3v6.1H522.5v8.75h19.25v6.6h-27.1V40Z" style="fill:#fff"/><path d="M574.25,40a14.89,14.89,0,0,1,5.7,1,10.75,10.75,0,0,1,3.82,2.57,10,10,0,0,1,2.15,3.65,13.56,13.56,0,0,1,0,8.48,9.86,9.86,0,0,1-2.15,3.67A10.64,10.64,0,0,1,580,62a14.9,14.9,0,0,1-5.7,1H566v12.8h-7.85V40Zm-2.15,16.8a15.74,15.74,0,0,0,2.6-.2,6.11,6.11,0,0,0,2.2-.77,4.27,4.27,0,0,0,1.52-1.63,6.81,6.81,0,0,0,0-5.5,4.17,4.17,0,0,0-1.52-1.62,6.12,6.12,0,0,0-2.2-.78,16.91,16.91,0,0,0-2.6-.2H566v10.7Z" style="fill:#fff"/><circle cx="431.31" cy="57.95" r="16.47" style="fill:#24d6ff"/><circle cx="416.82" cy="94.84" r="10.38" style="fill:#24d6ff"/><circle cx="415.51" cy="23.7" r="10.38" style="fill:#24d6ff"/><path d="M392.89,12.44a6.22,6.22,0,1,0-6.22-6.22A6.23,6.23,0,0,0,392.89,12.44Z" style="fill:#24d6ff"/><path d="M393.1,109a6.22,6.22,0,1,0,6.22,6.22A6.23,6.23,0,0,0,393.1,109Z" style="fill:#24d6ff"/><path d="M115.85,82.19a15.33,15.33,0,0,0,5,6,21,21,0,0,0,7.58,3.2,43,43,0,0,0,9.37,1,26.63,26.63,0,0,0,6.21-.81,21.71,21.71,0,0,0,6.26-2.6,15.87,15.87,0,0,0,4.83-4.58,11.59,11.59,0,0,0,1.94-6.77,9.88,9.88,0,0,0-1.38-5.29,12.54,12.54,0,0,0-3.56-3.77,20.8,20.8,0,0,0-4.83-2.49,47.07,47.07,0,0,0-5.2-1.58l-16.18-4a46.78,46.78,0,0,1-6.16-2,17.55,17.55,0,0,1-5.24-3.25,15.46,15.46,0,0,1-3.62-5A17.18,17.18,0,0,1,109.54,43a23.08,23.08,0,0,1,1-6.21,17.32,17.32,0,0,1,3.82-6.72,22.18,22.18,0,0,1,7.68-5.34,30.79,30.79,0,0,1,12.52-2.19A36.48,36.48,0,0,1,144.86,24a25.25,25.25,0,0,1,8.55,4.27,20.59,20.59,0,0,1,8.05,16.9h-6.93a16.77,16.77,0,0,0-1.88-7.28,16.22,16.22,0,0,0-4.38-5.19,19.27,19.27,0,0,0-6.21-3.16,25.28,25.28,0,0,0-7.38-1.07,30.46,30.46,0,0,0-6.87.77,17.23,17.23,0,0,0-5.8,2.44,12.72,12.72,0,0,0-4,4.43,13.87,13.87,0,0,0-1.53,6.82,10.48,10.48,0,0,0,.87,4.43,9.25,9.25,0,0,0,2.39,3.2,12.46,12.46,0,0,0,3.51,2.14A26.12,26.12,0,0,0,127.46,54l17.71,4.37a50.62,50.62,0,0,1,7.28,2.5,24,24,0,0,1,6,3.66,15.39,15.39,0,0,1,4.07,5.35A17.78,17.78,0,0,1,164,77.51a27.52,27.52,0,0,1-.25,3.26,16.14,16.14,0,0,1-1.23,4.32,21.57,21.57,0,0,1-2.74,4.64A17.44,17.44,0,0,1,154.89,94a28.15,28.15,0,0,1-7.69,3,44.85,44.85,0,0,1-11,1.17A46,46,0,0,1,124.3,96.7a25.77,25.77,0,0,1-9.36-4.53,20,20,0,0,1-6-7.84,25.74,25.74,0,0,1-1.78-11.5h6.92A20.43,20.43,0,0,0,115.85,82.19Z" style="fill:#fff"/><path d="M207.26,24.07a26.88,26.88,0,0,1,8.86,1.37,18.79,18.79,0,0,1,6.82,4.07,18.06,18.06,0,0,1,4.38,6.57,23.86,23.86,0,0,1,1.52,8.75,23.88,23.88,0,0,1-1.52,8.76,17.93,17.93,0,0,1-4.38,6.56,18.67,18.67,0,0,1-6.82,4.08,27.14,27.14,0,0,1-8.86,1.37H181.92V96.75H175V24.07ZM205.74,59.7c4.81,0,8.72-1.23,11.7-3.67s4.48-6.17,4.48-11.2-1.49-8.75-4.48-11.19S210.55,30,205.74,30H181.92V59.7Z" style="fill:#fff"/><path d="M246.55,24.07V96.75h-6.92V24.07Z" style="fill:#fff"/><path d="M295,24.07a31.44,31.44,0,0,1,8.5,1.12,20.32,20.32,0,0,1,7,3.41,16.4,16.4,0,0,1,4.79,5.9A19.12,19.12,0,0,1,317.1,43a20.42,20.42,0,0,1-3.56,12A16.25,16.25,0,0,1,303,61.53v.2a16.26,16.26,0,0,1,5.9,1.88,12,12,0,0,1,3.82,3.52,14.47,14.47,0,0,1,2.14,4.93,35.8,35.8,0,0,1,.86,6.06c.07,1.22.14,2.72.21,4.48s.2,3.55.4,5.34a33.77,33.77,0,0,0,1,5.09A9.63,9.63,0,0,0,319,96.75H311.4a8.87,8.87,0,0,1-1-2.5,21.33,21.33,0,0,1-.51-3c-.1-1-.19-2.09-.25-3.1s-.14-1.9-.21-2.65q-.19-3.87-.66-7.69a21.09,21.09,0,0,0-1.93-6.82,12,12,0,0,0-4.28-4.83c-1.87-1.22-4.43-1.77-7.68-1.63H268.64V96.75h-6.92V24.07Zm-.51,34.51a18.67,18.67,0,0,0,6-1,15,15,0,0,0,5-2.8,13.66,13.66,0,0,0,3.41-4.43,13.32,13.32,0,0,0,1.28-6q0-6.72-3.87-10.59T294.5,30H268.64V58.58Z" style="fill:#fff"/><path d="M379.8,24.07V30H336.54V56.23h40.51v5.91H336.54v28.7h43.77v5.91H329.62V24.07Z" style="fill:#fff"/><circle cx="8.45" cy="30.54" r="8.45" style="fill:#00e5ff"/><polygon points="16.37 45.97 1.08 45.97 1.08 96.82 16.37 96.82 16.37 45.99 16.41 46.04 16.41 46.02 16.37 45.97" style="fill:#fff"/><path d="M44.62,24.38,75,73.14h.2V24.38h15V97.06h-16L43.91,48.4H43.7V97.06h-15V24.38Z" style="fill:#fff"/></g></g></svg>