<svg width="194" height="62" viewBox="0 0 194 62" fill="none" xmlns="http://www.w3.org/2000/svg">
<path d="M156.814 13.0644V17.539H161.533V13.0644H164.097V24.7244H161.533V19.7077H156.814V24.7375H154.25V13.0644H156.814Z" fill="white"/>
<path d="M178.811 13.0644V15.2201H172.654V17.7186H178.305V19.711H172.654V22.5688H178.941V24.7244H170.09V13.0644H178.811Z" fill="white"/>
<path d="M189.556 13.0644C190.192 13.0505 190.825 13.1615 191.418 13.391C191.89 13.5775 192.315 13.8638 192.666 14.2304C192.982 14.5731 193.222 14.9796 193.368 15.4226C193.664 16.322 193.664 17.2927 193.368 18.1922C193.224 18.6381 192.984 19.0472 192.666 19.3909C192.323 19.7635 191.902 20.0567 191.434 20.2499C190.841 20.4794 190.209 20.5903 189.573 20.5765H186.862V24.7571H184.298V13.0644H189.556ZM188.854 18.5515C189.138 18.5533 189.423 18.5314 189.703 18.4862C189.957 18.4492 190.201 18.3638 190.422 18.2347C190.632 18.1043 190.803 17.9206 190.918 17.7023C191.043 17.4193 191.108 17.1134 191.108 16.8041C191.108 16.4948 191.043 16.1889 190.918 15.906C190.804 15.6879 190.632 15.5051 190.422 15.3768C190.201 15.2466 189.957 15.1601 189.703 15.1221C189.422 15.0785 189.138 15.0566 188.854 15.0568H186.862V18.5515H188.854Z" fill="white"/>
<path d="M142.871 24.3064C145.841 24.3064 148.25 21.898 148.25 18.9271C148.25 15.9562 145.841 13.5478 142.871 13.5478C139.9 13.5478 137.491 15.9562 137.491 18.9271C137.491 21.898 139.9 24.3064 142.871 24.3064Z" fill="#24D6FF"/>
<path d="M138.138 34.366C140.01 34.366 141.528 32.8481 141.528 30.9758C141.528 29.1034 140.01 27.5856 138.138 27.5856C136.266 27.5856 134.748 29.1034 134.748 30.9758C134.748 32.8481 136.266 34.366 138.138 34.366Z" fill="#24D6FF"/>
<path d="M137.71 11.1309C139.582 11.1309 141.1 9.61305 141.1 7.74068C141.1 5.86831 139.582 4.35046 137.71 4.35046C135.838 4.35046 134.32 5.86831 134.32 7.74068C134.32 9.61305 135.838 11.1309 137.71 11.1309Z" fill="#24D6FF"/>
<path d="M130.322 4.06304C130.724 4.06304 131.117 3.94389 131.451 3.72067C131.785 3.49744 132.045 3.18016 132.199 2.80895C132.353 2.43774 132.393 2.02927 132.315 1.63519C132.236 1.24111 132.043 0.879132 131.759 0.595019C131.475 0.310906 131.113 0.117423 130.718 0.039036C130.324 -0.0393506 129.916 0.000880241 129.545 0.154641C129.174 0.308402 128.856 0.568787 128.633 0.902869C128.41 1.23695 128.291 1.62972 128.291 2.03152C128.292 2.57005 128.506 3.08627 128.887 3.46707C129.267 3.84786 129.784 4.06218 130.322 4.06304Z" fill="#24D6FF"/>
<path d="M39.8379 26.8442C40.2039 27.6274 40.7665 28.3025 41.4709 28.8038C42.2192 29.312 43.0606 29.6672 43.9466 29.849C44.9517 30.0696 45.978 30.1792 47.007 30.1756C47.6911 30.1675 48.3719 30.0787 49.0352 29.911C49.757 29.7368 50.447 29.4502 51.0798 29.0618C51.7055 28.6803 52.2432 28.1705 52.6574 27.566C53.0928 26.9125 53.3142 26.1397 53.291 25.3548C53.3062 24.7479 53.15 24.1491 52.8403 23.627C52.5427 23.1401 52.1466 22.7207 51.6775 22.3957C51.1895 22.0568 50.6591 21.7834 50.1 21.5824C49.5443 21.3779 48.9772 21.2056 48.4016 21.0664L43.117 19.76C42.4321 19.589 41.7599 19.3707 41.1051 19.1067C40.4765 18.8567 39.897 18.4973 39.3937 18.0453C38.8938 17.5859 38.4917 17.0305 38.2113 16.4122C37.8969 15.6636 37.7487 14.8557 37.777 14.0443C37.7928 13.3564 37.9027 12.674 38.1036 12.016C38.3488 11.1998 38.7753 10.4495 39.3512 9.82119C40.0539 9.06812 40.909 8.47353 41.8596 8.07709C43.1581 7.55686 44.5508 7.31325 45.9488 7.36181C47.0871 7.35924 48.22 7.51982 49.3129 7.83866C50.324 8.12154 51.2718 8.59489 52.1054 9.23329C52.9486 9.88014 53.6265 10.7176 54.0835 11.6771C54.5405 12.6366 54.7637 13.6907 54.7346 14.753H52.4712C52.4491 13.9242 52.2392 13.1112 51.8572 12.3753C51.5053 11.7156 51.0177 11.1379 50.4266 10.6802C49.8188 10.2158 49.1315 9.86601 48.3983 9.64809C47.6166 9.41308 46.8043 9.29531 45.988 9.29861C45.2329 9.29702 44.4801 9.3814 43.7441 9.5501C43.0691 9.69722 42.427 9.96736 41.8498 10.347C41.3057 10.7189 40.8579 11.2148 40.5434 11.7939C40.1894 12.4816 40.0173 13.2484 40.0436 14.0214C40.0321 14.5186 40.1291 15.0124 40.3278 15.4683C40.5088 15.8694 40.7752 16.2261 41.1084 16.5134C41.4492 16.8083 41.8366 17.0445 42.2548 17.2124C42.7004 17.3924 43.1603 17.5344 43.6298 17.637L49.4141 19.0643C50.2263 19.2757 51.0211 19.5487 51.7918 19.8808C52.5002 20.1809 53.1605 20.5837 53.7515 21.0762C54.3179 21.5536 54.7719 22.1503 55.0808 22.8236C55.4237 23.6084 55.5888 24.4594 55.5642 25.3156C55.5581 25.6718 55.5308 26.0274 55.4825 26.3804C55.415 26.8671 55.2798 27.342 55.0808 27.7913C54.847 28.3319 54.5464 28.841 54.1859 29.3068C53.7455 29.8675 53.2037 30.3406 52.5888 30.7014C51.8042 31.1497 50.9579 31.4798 50.0771 31.6813C48.8999 31.9564 47.6932 32.0848 46.4844 32.0634C45.1734 32.0736 43.8668 31.9122 42.5977 31.5833C41.4888 31.3029 40.4486 30.7995 39.5407 30.1037C38.6837 29.4273 38.01 28.547 37.581 27.5431C37.103 26.3519 36.9041 25.067 36.9996 23.7871H39.2598C39.2089 24.8374 39.407 25.8849 39.8379 26.8442Z" fill="white"/>
<path d="M69.6934 7.86152C70.6762 7.84763 71.6544 7.99889 72.5871 8.30898C73.4159 8.58831 74.1753 9.04154 74.8146 9.63829C75.4439 10.2393 75.9325 10.9721 76.2452 11.7841C76.5881 12.6973 76.7565 13.6667 76.7416 14.642C76.7567 15.6183 76.5883 16.5889 76.2452 17.5031C75.9333 18.3146 75.4446 19.0465 74.8146 19.6456C74.1764 20.2446 73.4167 20.699 72.5871 20.9782C71.654 21.2868 70.6761 21.438 69.6934 21.4257H61.4171V31.5996H59.1569V7.86152H69.6934ZM69.1969 19.4987C70.7679 19.4987 72.045 19.0969 73.0183 18.3C73.9916 17.5031 74.4815 16.2848 74.4815 14.642C74.4815 12.9991 73.9948 11.7841 73.0183 10.9872C72.0417 10.1903 70.7679 9.79833 69.1969 9.79833H61.4171V19.4987H69.1969Z" fill="white"/>
<path d="M82.5259 7.86152V31.5996H80.2658V7.86152H82.5259Z" fill="white"/>
<path d="M98.3502 7.86152C99.288 7.85612 100.222 7.9792 101.126 8.22733C101.953 8.44773 102.73 8.82592 103.413 9.34107C104.078 9.85205 104.614 10.5121 104.977 11.2681C105.385 12.1358 105.587 13.0858 105.568 14.0443C105.601 15.4402 105.194 16.8111 104.406 17.9636C103.585 19.1016 102.347 19.8684 100.963 20.0964V20.1617C101.639 20.241 102.293 20.4495 102.89 20.7757C103.385 21.0633 103.811 21.4557 104.138 21.9254C104.469 22.4138 104.706 22.9599 104.837 23.5356C104.987 24.1861 105.081 24.8483 105.118 25.5148C105.14 25.9133 105.163 26.4032 105.186 26.9781C105.209 27.5529 105.251 28.1375 105.317 28.7222C105.383 29.2839 105.492 29.8397 105.643 30.3846C105.736 30.8239 105.922 31.2382 106.189 31.5996H103.707C103.557 31.3456 103.447 31.0703 103.38 30.7831C103.301 30.4608 103.246 30.1334 103.213 29.8032C103.181 29.4766 103.151 29.1206 103.132 28.7908C103.112 28.4609 103.086 28.1702 103.063 27.9252C103.022 27.0826 102.95 26.2454 102.848 25.4136C102.765 24.6409 102.552 23.8877 102.217 23.1861C101.904 22.5425 101.421 21.9969 100.819 21.6086C100.209 21.2101 99.3725 21.0305 98.311 21.0762H89.7408V31.5996H87.4806V7.86152H98.3502ZM98.1836 19.1329C98.8503 19.1319 99.5123 19.0215 100.143 18.8063C100.741 18.6092 101.296 18.2987 101.776 17.8917C102.243 17.4914 102.623 16.9988 102.89 16.4449C103.18 15.8331 103.323 15.162 103.308 14.4852C103.308 13.022 102.887 11.869 102.044 11.0264C101.202 10.1837 99.9158 9.77438 98.1869 9.79833H89.7408V19.1329H98.1836Z" fill="white"/>
<path d="M126.047 7.86152V9.79833H111.918V18.3653H125.149V20.2956H111.918V29.6693H126.213V31.5996H109.657V7.86152H126.047Z" fill="white"/>
<path d="M4.75986 12.7346C6.28409 12.7346 7.51972 11.4989 7.51972 9.9747C7.51972 8.45047 6.28409 7.21484 4.75986 7.21484C3.23563 7.21484 2 8.45047 2 9.9747C2 11.4989 3.23563 12.7346 4.75986 12.7346Z" fill="#00E5FF"/>
<path d="M7.34662 15.0143H2.35274V31.6225H7.34662V15.0208L7.35968 15.0372V15.0306L7.34662 15.0143Z" fill="white"/>
<path d="M16.5734 7.96277L26.4958 23.8883H26.5611V7.96277H31.4603V31.7009H26.2345L16.3415 15.808H16.2729V31.7009H11.3737V7.96277H16.5734Z" fill="white"/>
<path d="M2.73011 61V38.4545H10.6122C12.1828 38.4545 13.4781 38.7261 14.4982 39.2692C15.5183 39.8049 16.2779 40.5278 16.777 41.4379C17.276 42.3406 17.5256 43.3423 17.5256 44.4432C17.5256 45.4119 17.3531 46.2119 17.0082 46.843C16.6706 47.4742 16.2229 47.9732 15.6651 48.3402C15.1147 48.7071 14.5166 48.9787 13.8707 49.1548V49.375C14.5606 49.419 15.2541 49.6612 15.9514 50.1016C16.6486 50.5419 17.232 51.1731 17.7017 51.995C18.1714 52.817 18.4062 53.8224 18.4062 55.0114C18.4062 56.1416 18.1494 57.158 17.6357 58.0607C17.1219 58.9634 16.311 59.679 15.2028 60.2074C14.0946 60.7358 12.6525 61 10.8764 61H2.73011ZM5.46023 58.5781H10.8764C12.6598 58.5781 13.9258 58.2332 14.6744 57.5433C15.4303 56.8461 15.8082 56.0021 15.8082 55.0114C15.8082 54.2481 15.6138 53.5436 15.2248 52.8977C14.8358 52.2446 14.2817 51.7235 13.5625 51.3345C12.8433 50.9382 11.992 50.7401 11.0085 50.7401H5.46023V58.5781ZM5.46023 48.3622H10.5241C11.3461 48.3622 12.0874 48.2008 12.7479 47.8778C13.4157 47.5549 13.9441 47.0999 14.3331 46.5128C14.7294 45.9257 14.9276 45.2358 14.9276 44.4432C14.9276 43.4524 14.5826 42.6121 13.8928 41.9222C13.2029 41.225 12.1094 40.8764 10.6122 40.8764H5.46023V48.3622ZM23.8169 61H20.9547L29.2331 38.4545H32.0513L40.3297 61H37.4675L30.7303 42.0213H30.5542L23.8169 61ZM24.8738 52.1932H36.4107V54.6151H24.8738V52.1932ZM60.9239 45.5H58.1938C58.0323 44.7147 57.7498 44.0249 57.3461 43.4304C56.9498 42.8359 56.4655 42.3369 55.893 41.9332C55.3279 41.5223 54.7004 41.214 54.0106 41.0085C53.3207 40.803 52.6015 40.7003 51.8529 40.7003C50.4878 40.7003 49.2512 41.0452 48.143 41.7351C47.0422 42.425 46.1652 43.4414 45.512 44.7844C44.8662 46.1275 44.5432 47.7751 44.5432 49.7273C44.5432 51.6795 44.8662 53.3271 45.512 54.6701C46.1652 56.0131 47.0422 57.0296 48.143 57.7195C49.2512 58.4093 50.4878 58.7543 51.8529 58.7543C52.6015 58.7543 53.3207 58.6515 54.0106 58.446C54.7004 58.2405 55.3279 57.936 55.893 57.5323C56.4655 57.1213 56.9498 56.6186 57.3461 56.0241C57.7498 55.4223 58.0323 54.7325 58.1938 53.9545H60.9239C60.7184 55.1068 60.3441 56.1379 59.801 57.0479C59.258 57.958 58.5828 58.7322 57.7755 59.3707C56.9682 60.0019 56.0618 60.4826 55.0564 60.8129C54.0583 61.1431 52.9904 61.3082 51.8529 61.3082C49.9301 61.3082 48.2201 60.8385 46.7229 59.8991C45.2258 58.9598 44.0479 57.6241 43.1892 55.892C42.3305 54.16 41.9012 52.1051 41.9012 49.7273C41.9012 47.3494 42.3305 45.2945 43.1892 43.5625C44.0479 41.8305 45.2258 40.4948 46.7229 39.5554C48.2201 38.616 49.9301 38.1463 51.8529 38.1463C52.9904 38.1463 54.0583 38.3114 55.0564 38.6417C56.0618 38.9719 56.9682 39.4563 57.7755 40.0948C58.5828 40.726 59.258 41.4966 59.801 42.4066C60.3441 43.3093 60.7184 44.3404 60.9239 45.5ZM65.3356 61V38.4545H68.0657V49.6392H68.3299L78.4577 38.4545H82.0245L72.5572 48.6264L82.0245 61H78.7219L70.8839 50.5199L68.0657 53.6903V61H65.3356ZM103.521 49.7273C103.521 52.1051 103.092 54.16 102.233 55.892C101.375 57.6241 100.197 58.9598 98.6997 59.8991C97.2025 60.8385 95.4925 61.3082 93.5697 61.3082C91.6469 61.3082 89.9369 60.8385 88.4397 59.8991C86.9426 58.9598 85.7646 57.6241 84.906 55.892C84.0473 54.16 83.618 52.1051 83.618 49.7273C83.618 47.3494 84.0473 45.2945 84.906 43.5625C85.7646 41.8305 86.9426 40.4948 88.4397 39.5554C89.9369 38.616 91.6469 38.1463 93.5697 38.1463C95.4925 38.1463 97.2025 38.616 98.6997 39.5554C100.197 40.4948 101.375 41.8305 102.233 43.5625C103.092 45.2945 103.521 47.3494 103.521 49.7273ZM100.879 49.7273C100.879 47.7751 100.553 46.1275 99.8996 44.7844C99.2538 43.4414 98.3767 42.425 97.2686 41.7351C96.1677 41.0452 94.9347 40.7003 93.5697 40.7003C92.2046 40.7003 90.968 41.0452 89.8598 41.7351C88.759 42.425 87.882 43.4414 87.2288 44.7844C86.5829 46.1275 86.26 47.7751 86.26 49.7273C86.26 51.6795 86.5829 53.3271 87.2288 54.6701C87.882 56.0131 88.759 57.0296 89.8598 57.7195C90.968 58.4093 92.2046 58.7543 93.5697 58.7543C94.9347 58.7543 96.1677 58.4093 97.2686 57.7195C98.3767 57.0296 99.2538 56.0131 99.8996 54.6701C100.553 53.3271 100.879 51.6795 100.879 49.7273ZM108.112 61V38.4545H121.63V40.8764H110.842V48.4943H120.618V50.9162H110.842V61H108.112ZM126.306 61V38.4545H139.825V40.8764H129.036V48.4943H138.812V50.9162H129.036V61H126.306ZM147.231 38.4545V61H144.501V38.4545H147.231ZM170.847 45.5H168.117C167.955 44.7147 167.673 44.0249 167.269 43.4304C166.873 42.8359 166.388 42.3369 165.816 41.9332C165.251 41.5223 164.623 41.214 163.933 41.0085C163.244 40.803 162.524 40.7003 161.776 40.7003C160.411 40.7003 159.174 41.0452 158.066 41.7351C156.965 42.425 156.088 43.4414 155.435 44.7844C154.789 46.1275 154.466 47.7751 154.466 49.7273C154.466 51.6795 154.789 53.3271 155.435 54.6701C156.088 56.0131 156.965 57.0296 158.066 57.7195C159.174 58.4093 160.411 58.7543 161.776 58.7543C162.524 58.7543 163.244 58.6515 163.933 58.446C164.623 58.2405 165.251 57.936 165.816 57.5323C166.388 57.1213 166.873 56.6186 167.269 56.0241C167.673 55.4223 167.955 54.7325 168.117 53.9545H170.847C170.641 55.1068 170.267 56.1379 169.724 57.0479C169.181 57.958 168.506 58.7322 167.698 59.3707C166.891 60.0019 165.985 60.4826 164.979 60.8129C163.981 61.1431 162.913 61.3082 161.776 61.3082C159.853 61.3082 158.143 60.8385 156.646 59.8991C155.149 58.9598 153.971 57.6241 153.112 55.892C152.253 54.16 151.824 52.1051 151.824 49.7273C151.824 47.3494 152.253 45.2945 153.112 43.5625C153.971 41.8305 155.149 40.4948 156.646 39.5554C158.143 38.616 159.853 38.1463 161.776 38.1463C162.913 38.1463 163.981 38.3114 164.979 38.6417C165.985 38.9719 166.891 39.4563 167.698 40.0948C168.506 40.726 169.181 41.4966 169.724 42.4066C170.267 43.3093 170.641 44.3404 170.847 45.5ZM175.258 61V38.4545H188.865V40.8764H177.989V48.4943H188.16V50.9162H177.989V58.5781H189.041V61H175.258Z" fill="#FBD091"/>
</svg>
