<svg width="155" height="51" viewBox="0 0 155 51" fill="none" xmlns="http://www.w3.org/2000/svg">
<path d="M119.981 10.1249V13.5927H123.638V10.1249H125.625V19.1614H123.638V15.2735H119.981V19.1716H117.994V10.1249H119.981Z" fill="white"/>
<path d="M137.028 10.1249V11.7955H132.257V13.7319H136.636V15.276H132.257V17.4908H137.13V19.1614H130.27V10.1249H137.028Z" fill="white"/>
<path d="M145.356 10.1249C145.849 10.1141 146.339 10.2001 146.799 10.3781C147.164 10.5225 147.494 10.7445 147.766 11.0286C148.011 11.2942 148.197 11.6092 148.31 11.9525C148.54 12.6496 148.54 13.4019 148.31 14.099C148.198 14.4445 148.013 14.7616 147.766 15.0279C147.5 15.3167 147.174 15.5439 146.812 15.6936C146.352 15.8715 145.862 15.9575 145.369 15.9468H143.268V19.1868H141.281V10.1249H145.356ZM144.812 14.3774C145.032 14.3788 145.252 14.3618 145.47 14.3268C145.666 14.2982 145.856 14.232 146.027 14.1319C146.189 14.0308 146.322 13.8885 146.412 13.7193C146.508 13.5 146.558 13.2629 146.558 13.0232C146.558 12.7835 146.508 12.5464 146.412 12.3271C146.323 12.1581 146.19 12.0164 146.027 11.917C145.856 11.8161 145.667 11.7491 145.47 11.7196C145.252 11.6858 145.032 11.6689 144.812 11.669H143.268V14.3774H144.812Z" fill="white"/>
<path d="M109.175 18.8374C111.477 18.8374 113.344 16.9709 113.344 14.6685C113.344 12.3661 111.477 10.4996 109.175 10.4996C106.872 10.4996 105.006 12.3661 105.006 14.6685C105.006 16.9709 106.872 18.8374 109.175 18.8374Z" fill="#24D6FF"/>
<path d="M105.507 26.6336C106.958 26.6336 108.134 25.4573 108.134 24.0062C108.134 22.5551 106.958 21.3788 105.507 21.3788C104.056 21.3788 102.88 22.5551 102.88 24.0062C102.88 25.4573 104.056 26.6336 105.507 26.6336Z" fill="#24D6FF"/>
<path d="M105.175 8.62644C106.626 8.62644 107.803 7.45011 107.803 5.99902C107.803 4.54794 106.626 3.3716 105.175 3.3716C103.724 3.3716 102.548 4.54794 102.548 5.99902C102.548 7.45011 103.724 8.62644 105.175 8.62644Z" fill="#24D6FF"/>
<path d="M99.4497 3.14885C99.7611 3.14885 100.065 3.05651 100.324 2.88351C100.583 2.71051 100.785 2.46462 100.904 2.17693C101.023 1.88924 101.055 1.57268 100.994 1.26727C100.933 0.96186 100.783 0.681324 100.563 0.461136C100.343 0.240948 100.062 0.0909987 99.7568 0.0302491C99.4514 -0.0305006 99.1349 0.000678367 98.8472 0.119843C98.5595 0.239008 98.3136 0.440806 98.1406 0.699719C97.9676 0.958633 97.8753 1.26303 97.8753 1.57442C97.8759 1.99178 98.042 2.39186 98.3371 2.68697C98.6322 2.98209 99.0323 3.14818 99.4497 3.14885Z" fill="#24D6FF"/>
<path d="M99.5028 27.5905C99.1914 27.5905 98.887 27.6828 98.6281 27.8558C98.3692 28.0288 98.1674 28.2747 98.0482 28.5624C97.9291 28.8501 97.8979 29.1666 97.9587 29.472C98.0194 29.7774 98.1694 30.058 98.3895 30.2782C98.6097 30.4984 98.8903 30.6483 99.1957 30.7091C99.5011 30.7698 99.8177 30.7386 100.105 30.6195C100.393 30.5003 100.639 30.2985 100.812 30.0396C100.985 29.7807 101.077 29.4763 101.077 29.1649C101.077 28.7475 100.91 28.3474 100.615 28.0523C100.32 27.7572 99.9202 27.5911 99.5028 27.5905Z" fill="#24D6FF"/>
<path d="M29.3244 20.8042C29.608 21.4112 30.0441 21.9345 30.59 22.323C31.1699 22.7168 31.8219 22.9921 32.5086 23.1329C33.2876 23.304 34.0829 23.3888 34.8804 23.3861C35.4106 23.3798 35.9382 23.311 36.4523 23.181C37.0117 23.046 37.5464 22.8239 38.0369 22.5229C38.5218 22.2273 38.9385 21.8321 39.2595 21.3636C39.5969 20.8572 39.7685 20.2583 39.7505 19.65C39.7623 19.1797 39.6413 18.7155 39.4012 18.3109C39.1706 17.9335 38.8637 17.6085 38.5001 17.3567C38.1219 17.094 37.7108 16.8821 37.2775 16.7264C36.8468 16.5678 36.4073 16.4343 35.9613 16.3265L31.8657 15.314C31.3349 15.1814 30.8139 15.0123 30.3065 14.8077C29.8193 14.6139 29.3702 14.3354 28.9801 13.9851C28.5927 13.6291 28.281 13.1986 28.0638 12.7194C27.8201 12.1393 27.7053 11.5132 27.7271 10.8843C27.7394 10.3512 27.8246 9.82237 27.9803 9.31241C28.1703 8.67981 28.5009 8.09833 28.9472 7.61142C29.4917 7.02779 30.1545 6.56698 30.8912 6.25974C31.8975 5.85656 32.9769 5.66776 34.0603 5.7054C34.9425 5.7034 35.8205 5.82785 36.6675 6.07496C37.4511 6.29419 38.1857 6.66103 38.8317 7.1558C39.4852 7.65711 40.0105 8.30616 40.3647 9.04974C40.7189 9.79332 40.8918 10.6103 40.8693 11.4336H39.1152C39.0981 10.7912 38.9353 10.1612 38.6393 9.59084C38.3666 9.07961 37.9887 8.6319 37.5306 8.27713C37.0596 7.91721 36.5269 7.64616 35.9587 7.47726C35.3528 7.29513 34.7233 7.20386 34.0907 7.20642C33.5055 7.20519 32.9221 7.27058 32.3517 7.40133C31.8286 7.51534 31.3309 7.7247 30.8836 8.01895C30.4619 8.30713 30.1149 8.69149 29.8711 9.14028C29.5968 9.67322 29.4634 10.2675 29.4838 10.8666C29.4749 11.2519 29.55 11.6346 29.704 11.9879C29.8443 12.2988 30.0508 12.5752 30.309 12.7979C30.5731 13.0264 30.8734 13.2095 31.1975 13.3396C31.5428 13.4791 31.8993 13.5892 32.2631 13.6687L36.7459 14.7748C37.3753 14.9387 37.9914 15.1502 38.5887 15.4076C39.1376 15.6402 39.6494 15.9524 40.1074 16.3341C40.5464 16.704 40.8982 17.1665 41.1376 17.6883C41.4034 18.2965 41.5313 18.9561 41.5122 19.6196C41.5075 19.8957 41.4864 20.1712 41.449 20.4448C41.3967 20.822 41.2919 21.1901 41.1376 21.5383C40.9564 21.9572 40.7234 22.3518 40.4441 22.7128C40.1028 23.1473 39.6829 23.514 39.2063 23.7936C38.5983 24.141 37.9424 24.3969 37.2598 24.553C36.3474 24.7662 35.4122 24.8657 34.4754 24.8491C33.4594 24.857 32.4468 24.732 31.4632 24.477C30.6038 24.2598 29.7976 23.8696 29.094 23.3304C28.4299 22.8062 27.9077 22.1239 27.5753 21.3459C27.2048 20.4227 27.0507 19.427 27.1247 18.435H28.8763C28.8369 19.249 28.9904 20.0608 29.3244 20.8042Z" fill="white"/>
<path d="M52.4624 6.09268C53.2241 6.08191 53.9822 6.19913 54.705 6.43946C55.3473 6.65594 55.9359 7.00719 56.4313 7.46967C56.919 7.93545 57.2977 8.50336 57.54 9.13269C57.8058 9.84038 57.9363 10.5917 57.9248 11.3475C57.9365 12.1042 57.806 12.8564 57.54 13.5649C57.2983 14.1938 56.9196 14.761 56.4313 15.2254C55.9367 15.6895 55.3479 16.0417 54.705 16.2581C53.9819 16.4972 53.224 16.6144 52.4624 16.6049H46.0482V24.4897H44.2966V6.09268H52.4624ZM52.0776 15.1115C53.2951 15.1115 54.2849 14.8001 55.0392 14.1825C55.7935 13.5649 56.1732 12.6207 56.1732 11.3475C56.1732 10.0743 55.796 9.13269 55.0392 8.51507C54.2823 7.89745 53.2951 7.5937 52.0776 7.5937H46.0482V15.1115H52.0776Z" fill="white"/>
<path d="M62.4076 6.09268V24.4897H60.656V6.09268H62.4076Z" fill="white"/>
<path d="M74.6714 6.09268C75.3982 6.08849 76.1221 6.18388 76.823 6.37618C77.4637 6.54699 78.0654 6.84008 78.5948 7.23933C79.1103 7.63534 79.5257 8.14688 79.8073 8.73275C80.1231 9.40526 80.2799 10.1415 80.2655 10.8843C80.2905 11.9662 79.9753 13.0286 79.3643 13.9218C78.7284 14.8037 77.7692 15.398 76.6964 15.5747V15.6253C77.2201 15.6868 77.7271 15.8484 78.1898 16.1012C78.5733 16.324 78.9034 16.6281 79.1568 16.9922C79.4137 17.3707 79.5974 17.7939 79.6984 18.2401C79.8147 18.7442 79.8875 19.2574 79.9161 19.774C79.9339 20.0828 79.9516 20.4625 79.9693 20.908C79.987 21.3535 80.0199 21.8066 80.0705 22.2597C80.1218 22.695 80.2064 23.1257 80.3237 23.5481C80.3957 23.8885 80.5399 24.2096 80.7464 24.4897H78.8226C78.7066 24.2929 78.6212 24.0795 78.5695 23.8569C78.5085 23.6072 78.4653 23.3534 78.4404 23.0975C78.4151 22.8444 78.3923 22.5685 78.3772 22.3128C78.362 22.0572 78.3417 21.8319 78.324 21.642C78.2919 20.989 78.2362 20.3402 78.1569 19.6955C78.0926 19.0967 77.9275 18.513 77.6684 17.9692C77.4257 17.4704 77.051 17.0476 76.585 16.7466C76.1117 16.4378 75.4637 16.2986 74.641 16.3341H67.9991V24.4897H66.2475V6.09268H74.6714ZM74.5423 14.828C75.059 14.8272 75.5721 14.7417 76.0611 14.5748C76.5246 14.4221 76.9543 14.1815 77.3267 13.8661C77.6886 13.5558 77.9825 13.174 78.1898 12.7448C78.4145 12.2706 78.5255 11.7506 78.5138 11.226C78.5138 10.092 78.1873 9.1985 77.5342 8.54544C76.8812 7.89238 75.8847 7.57514 74.5449 7.5937H67.9991V14.828H74.5423Z" fill="white"/>
<path d="M96.1363 6.09268V7.5937H85.1862V14.2331H95.4402V15.7291H85.1862V22.9937H96.2654V24.4897H83.4346V6.09268H96.1363Z" fill="white"/>
<path d="M2.13889 9.86928C3.32017 9.86928 4.27779 8.91166 4.27779 7.73039C4.27779 6.54911 3.32017 5.59149 2.13889 5.59149C0.957615 5.59149 0 6.54911 0 7.73039C0 8.91166 0.957615 9.86928 2.13889 9.86928Z" fill="#00E5FF"/>
<path d="M4.14363 11.6361H0.273373V24.5074H4.14363V11.6411L4.15376 11.6538V11.6487L4.14363 11.6361Z" fill="white"/>
<path d="M11.2944 6.17115L18.9843 18.5134H19.0349V6.17115H22.8317V24.5682H18.7818L11.1147 12.2512H11.0615V24.5682H7.26464V6.17115H11.2944Z" fill="white"/>
<path d="M0.621305 50.6247V32.9521H2.76135V40.8219H12.1844V32.9521H14.3245V50.6247H12.1844V42.7203H2.76135V50.6247H0.621305Z" fill="#FBD091"/>
<path d="M33.5202 41.7884C33.5202 43.6523 33.1836 45.2631 32.5105 46.6207C31.8375 47.9784 30.9141 49.0254 29.7406 49.7618C28.567 50.4981 27.2266 50.8663 25.7194 50.8663C24.2121 50.8663 22.8717 50.4981 21.6981 49.7618C20.5246 49.0254 19.6012 47.9784 18.9282 46.6207C18.2551 45.2631 17.9186 43.6523 17.9186 41.7884C17.9186 39.9245 18.2551 38.3137 18.9282 36.956C19.6012 35.5984 20.5246 34.5513 21.6981 33.815C22.8717 33.0786 24.2121 32.7104 25.7194 32.7104C27.2266 32.7104 28.567 33.0786 29.7406 33.815C30.9141 34.5513 31.8375 35.5984 32.5105 36.956C33.1836 38.3137 33.5202 39.9245 33.5202 41.7884ZM31.4492 41.7884C31.4492 40.2581 31.1932 38.9666 30.6812 37.9139C30.1749 36.8611 29.4874 36.0643 28.6188 35.5236C27.7559 34.9828 26.7894 34.7124 25.7194 34.7124C24.6493 34.7124 23.68 34.9828 22.8113 35.5236C21.9484 36.0643 21.2609 36.8611 20.7489 37.9139C20.2427 38.9666 19.9896 40.2581 19.9896 41.7884C19.9896 43.3186 20.2427 44.6101 20.7489 45.6629C21.2609 46.7157 21.9484 47.5124 22.8113 48.0532C23.68 48.5939 24.6493 48.8643 25.7194 48.8643C26.7894 48.8643 27.7559 48.5939 28.6188 48.0532C29.4874 47.5124 30.1749 46.7157 30.6812 45.6629C31.1932 44.6101 31.4492 43.3186 31.4492 41.7884Z" fill="#FBD091"/>
<path d="M37.1185 50.6247V32.9521H39.2586V48.7263H47.4736V50.6247H37.1185Z" fill="#FBD091"/>
<path d="M56.2409 50.6247H50.7872V32.9521H56.4825C58.1968 32.9521 59.6638 33.3059 60.8834 34.0135C62.103 34.7153 63.0378 35.7249 63.6879 37.0423C64.3379 38.3539 64.663 39.9245 64.663 41.7539C64.663 43.5948 64.3351 45.1797 63.6792 46.5085C63.0234 47.8317 62.0685 48.8499 60.8144 49.5633C59.5602 50.2709 58.0357 50.6247 56.2409 50.6247ZM52.9273 48.7263H56.1028C57.564 48.7263 58.775 48.4444 59.7357 47.8806C60.6964 47.3168 61.4126 46.5143 61.8844 45.473C62.3561 44.4318 62.592 43.1921 62.592 41.7539C62.592 40.3272 62.359 39.0989 61.893 38.0692C61.427 37.0337 60.7309 36.2398 59.8047 35.6875C58.8785 35.1295 57.7251 34.8505 56.3444 34.8505H52.9273V48.7263Z" fill="#FBD091"/>
<path d="M70.3928 32.9521V50.6247H68.2527V32.9521H70.3928Z" fill="#FBD091"/>
<path d="M88.6975 32.9521V50.6247H86.6265L76.9963 36.7489H76.8237V50.6247H74.6836V32.9521H76.7547L86.4194 46.8623H86.592V32.9521H88.6975Z" fill="#FBD091"/>
<path d="M105.061 38.4748C104.871 37.8937 104.621 37.3731 104.31 36.9129C104.005 36.4469 103.64 36.0499 103.214 35.722C102.794 35.3941 102.317 35.1439 101.782 34.9713C101.247 34.7987 100.66 34.7124 100.021 34.7124C98.9742 34.7124 98.0221 34.9828 97.1649 35.5236C96.3077 36.0643 95.626 36.8611 95.1198 37.9139C94.6135 38.9666 94.3604 40.2581 94.3604 41.7884C94.3604 43.3186 94.6164 44.6101 95.1284 45.6629C95.6404 46.7157 96.3336 47.5124 97.208 48.0532C98.0825 48.5939 99.0662 48.8643 100.159 48.8643C101.172 48.8643 102.063 48.6486 102.834 48.2171C103.611 47.7799 104.215 47.1644 104.646 46.3705C105.084 45.5708 105.302 44.6303 105.302 43.5487L105.958 43.6868H100.642V41.7884H107.373V43.6868C107.373 45.1423 107.063 46.4079 106.441 47.4837C105.826 48.5594 104.974 49.3936 103.887 49.9861C102.806 50.5729 101.563 50.8663 100.159 50.8663C98.5945 50.8663 97.2195 50.4981 96.0345 49.7618C94.8551 49.0254 93.9347 47.9784 93.2731 46.6207C92.6173 45.2631 92.2894 43.6523 92.2894 41.7884C92.2894 40.3904 92.4764 39.1335 92.8503 38.0174C93.23 36.8956 93.765 35.9406 94.4553 35.1525C95.1457 34.3644 95.9626 33.7603 96.906 33.3404C97.8495 32.9204 98.8879 32.7104 100.021 32.7104C100.953 32.7104 101.822 32.8514 102.627 33.1333C103.438 33.4094 104.16 33.8035 104.793 34.3155C105.432 34.8217 105.964 35.4286 106.39 36.1362C106.815 36.8381 107.109 37.6176 107.27 38.4748H105.061Z" fill="#FBD091"/>
<path d="M111.039 50.6247V32.9521H117.01C118.396 32.9521 119.53 33.2023 120.41 33.7028C121.296 34.1975 121.952 34.8677 122.377 35.7134C122.803 36.5591 123.016 37.5025 123.016 38.5438C123.016 39.5851 122.803 40.5314 122.377 41.3828C121.957 42.2342 121.307 42.913 120.427 43.4193C119.547 43.9198 118.419 44.17 117.044 44.17H112.764V42.2716H116.975C117.925 42.2716 118.687 42.1077 119.262 41.7797C119.837 41.4518 120.255 41.0089 120.513 40.4508C120.778 39.8871 120.91 39.2514 120.91 38.5438C120.91 37.8362 120.778 37.2034 120.513 36.6454C120.255 36.0873 119.835 35.6501 119.254 35.3337C118.672 35.0116 117.902 34.8505 116.941 34.8505H113.179V50.6247H111.039Z" fill="#FBD091"/>
<path d="M126.463 50.6247V32.9521H137.129V34.8505H128.603V40.8219H136.577V42.7203H128.603V48.7263H137.267V50.6247H126.463Z" fill="#FBD091"/>
<path d="M155 32.9521V50.6247H152.929L143.299 36.7489H143.126V50.6247H140.986V32.9521H143.057L152.722 46.8623H152.894V32.9521H155Z" fill="#FBD091"/>
</svg>
